o NaiveCube

# (36 * 3) + (36 * 3) = 216 floats
# (12 * 3) + (12 * 3) = 72 integers

v 1.000000 -1.000000 -1.000000
v 1.000000 -1.000000 1.000000
v -1.000000 -1.000000 1.000000
v -1.000000 -1.000000 -1.000000
v 1.000000 1.000000 -0.999999
v 0.999999 1.000000 1.000001
v -1.000000 1.000000 1.000000
v -1.000000 1.000000 -1.000000
v 1.000000 -1.000000 -1.000000
v 1.000000 -1.000000 -1.000000
v 1.000000 -1.000000 1.000000
v 1.000000 -1.000000 1.000000
v -1.000000 -1.000000 -1.000000
v -1.000000 -1.000000 -1.000000
v 1.000000 1.000000 -0.999999
v 1.000000 1.000000 -0.999999
v -1.000000 -1.000000 1.000000
v -1.000000 -1.000000 1.000000
v 0.999999 1.000000 1.000001
v 0.999999 1.000000 1.000001
v -1.000000 1.000000 1.000000
v -1.000000 1.000000 1.000000
v -1.000000 1.000000 -1.000000
v -1.000000 1.000000 -1.000000
v 1.000000 -1.000000 -1.000000 
v -1.000000 -1.000000 1.000000
v 0.999999 1.000000 1.000001
v -1.000000 1.000000 -1.000000
v 1.000000 -1.000000 -1.000000
v 1.000000 -1.000000 1.000000
v 1.000000 1.000000 -0.999999
v -1.000000 -1.000000 1.000000
v -1.000000 -1.000000 1.000000
v 0.999999 1.000000 1.000001
v -1.000000 1.000000 -1.000000
v -1.000000 1.000000 -1.000000

vn 0.0000 -1.0000 0.0000
vn 0.0000 1.0000 0.0000
vn 1.0000 -0.0000 0.0000
vn 0.0000 -0.0000 1.0000
vn -1.0000 -0.0000 -0.0000
vn 0.0000 0.0000 -1.0000
vn 0.0000 -1.0000 0.0000
vn 0.0000 1.0000 0.0000
vn 1.0000 -0.0000 0.0000
vn 0.0000 -0.0000 1.0000
vn -1.0000 -0.0000 -0.0000
vn 0.0000 0.0000 -1.0000
vn 0.0000 -1.0000 0.0000
vn 0.0000 1.0000 0.0000
vn 1.0000 -0.0000 0.0000
vn 0.0000 -0.0000 1.0000
vn -1.0000 -0.0000 -0.0000
vn 0.0000 0.0000 -1.0000
vn 0.0000 -1.0000 0.0000
vn 0.0000 1.0000 0.0000
vn 1.0000 -0.0000 0.0000
vn 0.0000 -0.0000 1.0000
vn -1.0000 -0.0000 -0.0000
vn 0.0000 0.0000 -1.0000
vn 0.0000 -1.0000 0.0000
vn 0.0000 1.0000 0.0000
vn 1.0000 -0.0000 0.0000
vn 0.0000 -0.0000 1.0000
vn -1.0000 -0.0000 -0.0000
vn 0.0000 0.0000 -1.0000
vn 0.0000 -1.0000 0.0000
vn 0.0000 1.0000 0.0000
vn 1.0000 -0.0000 0.0000
vn 0.0000 -0.0000 1.0000
vn -1.0000 -0.0000 -0.0000
vn 0.0000 0.0000 -1.0000

f 9//1 17//13 13//25
f 24//2 20//14 16//26
f 15//3 12//15 10//27
f 6//4 18//16 2//28
f 3//5 23//17 14//29
f 1//6 8//18 5//30
f 29//7 11//19 32//31
f 36//8 22//20 34//32
f 31//9 19//21 30//33
f 27//10 21//22 33//34
f 26//11 7//23 35//35
f 25//12 4//24 28//36