o ConcentricCube
v 1.000000 -1.000000 -1.000000
v 1.000000 -1.000000 1.000000
v -1.000000 -1.000000 1.000000
v -1.000000 -1.000000 -1.000000
v 1.000000 1.000000 -0.999999
v 0.999999 1.000000 1.000001
v -1.000000 1.000000 1.000000
v -1.000000 1.000000 -1.000000

vn 0.5773503 -0.5773503 -0.5773503 
vn 0.5773503 -0.5773503 0.5773503 
vn -0.5773503 -0.5773503 0.5773503 
vn -0.5773503 -0.5773503 -0.5773503 
vn 0.5773503 0.5773503 -0.5773497 
vn 0.5773497 0.5773503 0.5773508 
vn -0.5773503 0.5773503 0.5773503 
vn -0.5773503 0.5773503 -0.5773503

f 1//1 3//3 4//4
f 8//8 6//6 5//5
f 5//5 2//2 1//1
f 6//6 3//3 2//2
f 3//3 8//8 4//4
f 1//1 8//8 5//5
f 1//1 2//2 3//3
f 8//8 7//7 6//6
f 5//5 6//6 2//2
f 6//6 7//7 3//3
f 3//3 7//7 8//8
f 1//1 4//4 8//8